<?xml version='1.0' encoding='utf-8'?>
<svg xmlns="http://www.w3.org/2000/svg" width="167.4mm" height="131.1mm" viewBox="0 0 1000000 783154"><defs><style>.C1 {stroke: #231f20; stroke-width: 6332; stroke-opacity: 1.000; fill: none; fill-opacity: 1.000;}</style></defs><rect fill="#212830" x="0" y="0" width="1000000" height="783154" fill-opacity="1.0" /><g stroke-linecap="round" stroke-linejoin="round" fill-rule="evenodd"><path d="M 960253 711258 l -51520 191 l -5055 18086 l 68548 298 l -20765 21696 l -84617 -162 l 27335 -98808 l 105531 68 l -31028 22750 l -50733 -78 l -4570 16571 l 52498 185 l -5625 19203" class="C1" /><path d="M 834127 701295 l 26913 49791 l -35634 367 l -23149 -42805 l -11567 42457 l -31366 64 l 27479 -98343 l 30784 -192 l -10145 39858 l 42585 -39849 l 36455 288 l -52353 48364" class="C1" /><path d="M 743889 750956 l -31332 149 l 27806 -98388 l 30283 -16 l -26757 98255" class="C1" /><path d="M 653658 713716 c 216 -4032 2585 -11470 3953 -15550 l 23573 -1155 c 3483 -171 10666 -19436 5758 -21453 l -33240 -223 l -20575 75744 l -30611 -158 l 27559 -97990 l 78078 316 c 9003 36 14102 9007 12301 16484 c -6665 22176 -4566 42207 -32664 45431 l 17673 36022 l -33762 -39 l -18041 -37429" class="C1" /><path d="M 563238 750839 l -30591 300 l 20742 -75638 l -32344 -426 l 14710 -22154 l 89806 -18 l -15277 22441 l -26522 61 l -20525 75433" class="C1" /><path d="M 384125 708133 c -12866 2315 -24867 656 -38289 1058 l -5043 17263 l 54341 344 l -20237 22635 l -69128 -126 l 25179 -96966 l 86882 40 l -16176 22697 l -47071 -129 l -4048 14966 l 45300 306 c -1394 5822 -4218 16563 -11709 17911" class="C1" /><path d="M 301299 726423 l -6178 23062 l -62718 -100 l 25057 -96749 l 29534 -227 l -18504 73528 l 32809 485" class="C1" /><path d="M 201238 749008 c -18757 812 -36860 633 -55014 202 c -9064 -215 -15690 -8234 -13447 -16886 l 15546 -59991 c 2662 -10274 11591 -18353 22983 -18899 c 18372 -880 36749 -739 55176 -119 c 9173 308 15248 9116 13073 17569 l -14805 57534 c -2776 10787 -10732 20037 -23511 20590" class="C1" /><path d="M 512300 725326 c -3744 15179 -15002 26462 -31503 27378 l -96165 5338 l 28404 -30985 l 61786 -2223 c 4319 -4465 6574 -12061 6332 -18288 l -50602 -12150 c -8001 -1921 -13621 -8888 -11539 -17153 c 3102 -12309 5639 -24037 10406 -35975 c 4135 -10354 16922 -18495 28615 -18516 l 92711 -168 l -31432 27731 l -51350 274 c -9416 50 -11151 11180 -10876 18739 l 52501 14147 c 6961 1876 10940 8488 9205 15521 l -6494 26328" class="C1" /><path d="M 53118 719072 l -10320 42397 l -42507 21685 l 35084 -136626 l 9268 -1896 l -28785 -23326 l 121080 -197 c 2479 -4 6298 2042 7550 3653 c 1253 1611 2109 6680 1558 8815 l -16220 62782 c -3378 13073 -17814 21456 -30858 22168 c -15265 833 -28807 572 -45848 545" class="C1" /><path d="M 500033 470500 c -17422 -494 -33977 -1430 -50922 -6621 l -27754 -8503 c 16293 13778 35252 21386 56342 24465 c -1050 3454 -3666 7499 -6577 9267 c -87132 -12765 -163829 -65397 -196503 -147922 c -12789 -32301 -16633 -64927 -12144 -99370 c 10418 -79936 61849 -148544 135396 -181705 c 133315 -60111 296435 10638 332139 154515 c 27821 112112 -36655 212301 -137276 258962 c -20437 9477 -40674 16677 -62076 23637 c -24110 7841 -44751 18684 -67418 32329 l 36794 -59054" class="C1" /><path d="M 98844 682213 c -1369 5190 -5451 7334 -10909 7283 l -27952 -261 l 9736 -38331 l 37418 -128 l -8292 31437" class="C1" /><path d="M 53118 719072 c 17041 26 30584 288 45848 -545 c 13044 -712 27481 -9095 30858 -22168 l 16220 -62782 c 552 -2135 -305 -7204 -1558 -8815 c -1253 -1611 -5071 -3657 -7550 -3653 l -121080 197 l 28785 23326 l -9268 1896 l -35084 136626 l 42507 -21685 l 10320 -42397" class="C1" /><path d="M 512300 725326 l 6494 -26328 c 1735 -7032 -2244 -13645 -9205 -15521 l -52501 -14147 c -275 -7559 1460 -18689 10876 -18739 l 51350 -274 l 31432 -27731 l -92711 168 c -11693 21 -24480 8162 -28615 18516 c -4768 11938 -7305 23666 -10406 35975 c -2083 8265 3538 15232 11539 17153 l 50602 12150 c 242 6226 -2014 13822 -6332 18288 l -61786 2223 l -28404 30985 l 96165 -5338 c 16501 -916 27759 -12200 31503 -27378" class="C1" /><path d="M 653658 713716 l 18041 37429 l 33762 39 l -17673 -36022 c 28098 -3224 25999 -23255 32664 -45431 c 1802 -7477 -3297 -16448 -12301 -16484 l -78078 -316 l -27559 97990 l 30611 158 l 20575 -75744 l 33240 223 c 4908 2017 -2274 21282 -5758 21453 l -23573 1155 c -1367 4080 -3736 11518 -3953 15550" class="C1" /><path d="M 960253 711258 l -51520 191 l -5055 18086 l 68548 298 l -20765 21696 l -84617 -162 l 27335 -98808 l 105531 68 l -31028 22750 l -50733 -78 l -4570 16571 l 52498 185 l -5625 19203" class="C1" /><path d="M 189931 727551 l -20794 277 c -1883 25 -5366 -3586 -4898 -5449 l 10359 -41263 c 2417 -9627 23323 -5515 33855 -5078 l -10852 44005 c -663 2689 -4503 7466 -7670 7508" class="C1" /><path d="M 201238 749008 c 12779 -553 20735 -9804 23511 -20590 l 14805 -57534 c 2175 -8453 -3900 -17260 -13073 -17569 c -18427 -620 -36804 -761 -55176 119 c -11392 546 -20321 8625 -22983 18899 l -15546 59991 c -2242 8652 4384 16670 13447 16886 c 18154 431 36257 610 55014 -202" class="C1" /><path d="M 834127 701295 l 26913 49791 l -35634 367 l -23149 -42805 l -11567 42457 l -31366 64 l 27479 -98343 l 30784 -192 l -10145 39858 l 42585 -39849 l 36455 288 l -52353 48364" class="C1" /><path d="M 384125 708133 c 7492 -1348 10315 -12089 11709 -17911 l -45300 -306 l 4048 -14966 l 47071 129 l 16176 -22697 l -86882 -40 l -25179 96966 l 69128 126 l 20237 -22635 l -54341 -344 l 5043 -17263 c 13422 -401 25422 1257 38289 -1058" class="C1" /><path d="M 563238 750839 l -30591 300 l 20742 -75638 l -32344 -426 l 14710 -22154 l 89806 -18 l -15277 22441 l -26522 61 l -20525 75433" class="C1" /><path d="M 301299 726423 l -6178 23062 l -62718 -100 l 25057 -96749 l 29534 -227 l -18504 73528 l 32809 485" class="C1" /><path d="M 743889 750956 l -31332 149 l 27806 -98388 l 30283 -16 l -26757 98255" class="C1" /><path d="M 98844 682213 l 8292 -31437 l -37418 128 l -9736 38331 l 27952 261 c 5458 51 9540 -2093 10909 -7283" class="C1" /><path d="M 610785 448386 c -28660 22410 -62008 33349 -98198 37311 l 27109 -43267 c -29141 9329 -58069 15913 -88516 9158 c -39347 -8729 -74261 -29814 -102679 -58246 c -67186 -67219 -71457 -170502 -17024 -245593 c 37521 -51759 95609 -81268 159527 -82364 c 19613 -336 37863 878 57085 4940 c 77857 16453 138916 76999 153753 155616 c 20065 106315 -54005 200153 -154255 225577 l -9590 16373 c 25832 -2291 48015 -12275 72787 -19505" class="C1" /><path d="M 500033 470500 l -36794 59054 c 22668 -13645 43309 -24488 67418 -32329 c 21402 -6960 41639 -14160 62076 -23637 c 100620 -46661 165097 -146850 137276 -258962 c -35704 -143878 -198824 -214626 -332139 -154515 c -73547 33162 -124978 101769 -135396 181705 c -4489 34443 -645 67069 12144 99370 c 32674 82524 109371 135157 196503 147922 c 2911 -1768 5527 -5813 6577 -9267 c -21090 -3078 -40049 -10686 -56342 -24465 l 27754 8503 c 16946 5192 33500 6127 50922 6621" class="C1" /><path d="M 566229 287999 l -203 -80329 c -22660 -3979 -42823 -4924 -64629 -5012 c -22814 135 -45077 1150 -67870 4752 l -1168 80581 c 45187 -1607 88616 -1225 133870 8" class="C1" /><path d="M 565863 200357 l 14 -55792 c -359 -10974 -6232 -19257 -16479 -23461 c -32674 -11740 -68203 -11980 -101114 -618 c -8346 3758 -14442 10654 -14512 20131 l -439 59539 c 44702 -6255 88228 -5974 132531 201" class="C1" /><path d="M 525027 388721 c 881 -4891 1124 -10878 3028 -14111 c 7308 -12408 15390 -22847 24282 -33931 c 14199 -17698 15001 -19124 13577 -45901 l -132869 51 l 3 18407 c 1 5561 2878 12371 6328 16762 l 26177 33324 c 5788 7369 7988 16081 9331 25166 c 16912 2804 33408 2938 50143 233" class="C1" /><path d="M 524552 408404 c -18883 2929 -31602 2490 -49225 -339 c -2171 -169 -4648 4980 -4158 7023 c 3412 14226 53180 13973 56634 1480 c 701 -2534 -948 -8522 -3251 -8164" class="C1" /><path d="M 526757 402981 c 4006 -2617 699 -11742 -3281 -11120 c -14744 2303 -28403 3156 -43025 232 c -4641 -928 -8186 -88 -9155 4597 c -624 3020 1348 7041 5004 7897 c 12591 2950 39524 5537 50456 -1606" class="C1" /></g></svg>